<svg width="94" height="80" viewBox="0 0 94 80" fill="none" xmlns="http://www.w3.org/2000/svg">
<g clip-path="url(#clip0_439_8)">
<g filter="url(#filter0_d_439_8)">
<path d="M53.5004 28.7459C52.3281 28.7459 51.3743 27.8159 51.3743 26.6729C51.3743 25.5299 52.3281 24.6 53.5004 24.6C54.6727 24.6 55.6265 25.5299 55.6265 26.6729C55.6265 27.8159 54.6727 28.7459 53.5004 28.7459ZM53.5004 25.5567C52.8691 25.5567 52.3556 26.0574 52.3556 26.6729C52.3556 27.2885 52.8691 27.7892 53.5004 27.7892C54.1317 27.7892 54.6452 27.2885 54.6452 26.6729C54.6452 26.0574 54.1317 25.5567 53.5004 25.5567Z" fill="white"/>
<path d="M52.7991 28.53C52.6244 28.53 52.4553 28.4388 52.3667 28.2781C52.2381 28.0456 52.3274 27.7553 52.5662 27.63C52.9407 27.4336 53.1733 27.0588 53.1733 26.6525C53.1733 26.2462 52.9407 25.8715 52.5662 25.675C52.3277 25.5497 52.2385 25.2598 52.3667 25.027C52.4952 24.7945 52.7929 24.7074 53.0313 24.8325C53.7245 25.1963 54.1549 25.8935 54.1549 26.6525C54.1549 27.4116 53.7245 28.1087 53.0313 28.4726C52.9574 28.5115 52.8776 28.53 52.7991 28.53Z" fill="white"/>
<path d="M63.6381 39.9215C63.5988 39.9215 63.5592 39.9167 63.5193 39.9071C63.2564 39.8433 63.0961 39.5837 63.1615 39.3277C65.6922 29.4067 61.4063 27.9528 61.3625 27.9394C61.3428 27.9333 61.3235 27.926 61.3046 27.9174C60.2255 27.4288 59.6256 28.2978 59.5608 28.3986C59.4794 28.5137 57.9191 30.6849 56.6618 31.9609C55.3125 33.3304 53.9321 33.4302 53.6692 33.4366C51.8312 33.6455 49.7698 32.3325 49.5585 32.1937L48.4219 31.5409C48.0261 31.3014 47.5796 31.178 47.1217 31.178C46.8505 31.178 46.631 30.964 46.631 30.6996C46.631 30.4352 46.8505 30.2212 47.1217 30.2212C47.7624 30.2212 48.3875 30.3944 48.9295 30.7223L50.0698 31.3773C50.0789 31.3827 50.0884 31.3885 50.0973 31.3945C50.1166 31.4073 52.0379 32.6705 53.5756 32.4843C53.5992 32.4814 53.6234 32.4792 53.6463 32.4808C53.6907 32.4808 54.8016 32.468 55.9539 31.2985C57.1586 30.0758 58.7248 27.8963 58.7405 27.8743C59.0911 27.3079 60.1843 26.3703 61.6938 27.0397C62.1809 27.21 66.7769 29.1168 64.113 39.5589C64.0584 39.7761 63.8579 39.9215 63.6381 39.9215Z" fill="white"/>
<path d="M52.6827 37.4763C52.594 37.4763 52.5054 37.453 52.4262 37.4055C52.2466 37.298 52.1573 37.0908 52.2048 36.8902C52.3951 36.0858 52.4135 33.9 52.4043 33.1253C52.4013 32.8612 52.6182 32.6447 52.8894 32.6415C53.1622 32.6399 53.3823 32.8501 53.3856 33.1145C53.3862 33.1916 53.3993 34.4039 53.3375 35.5379C53.8386 34.8357 54.376 33.819 54.5258 32.5573C54.5572 32.2948 54.8009 32.1067 55.0698 32.1373C55.339 32.1679 55.532 32.4052 55.5006 32.6677C55.1548 35.5743 53.0853 37.2926 52.9973 37.3647C52.907 37.4384 52.7952 37.4763 52.6827 37.4763Z" fill="white"/>
<path d="M50.0639 32.3111C49.815 32.3111 49.6014 32.1268 49.5762 31.8802C49.2844 29.0272 47.9041 26.5827 46.9787 26.5827C46.7076 26.5827 46.4881 26.3687 46.4881 26.1043C46.4881 25.8399 46.7076 25.6259 46.9787 25.6259C48.8998 25.6259 50.2886 29.2029 50.5526 31.7852C50.5794 32.0483 50.3825 32.2827 50.113 32.3089C50.097 32.3105 50.0803 32.3111 50.0639 32.3111Z" fill="white"/>
<path d="M53.7048 49.7015C52.8331 49.7015 52.124 49.01 52.124 48.1601C52.124 47.8957 52.3434 47.6817 52.6146 47.6817C52.8858 47.6817 53.1053 47.8957 53.1053 48.1601C53.1053 48.4825 53.3741 48.7447 53.7048 48.7447C54.0355 48.7447 54.3044 48.4825 54.3044 48.1601C54.3044 47.8957 54.5239 47.6817 54.795 47.6817C55.0662 47.6817 55.2857 47.8957 55.2857 48.1601C55.2857 49.01 54.5765 49.7015 53.7048 49.7015Z" fill="white"/>
<path d="M55.9127 46.4593C55.041 46.4593 54.3319 45.7679 54.3319 44.918C54.3319 44.6536 54.5514 44.4396 54.8225 44.4396C55.0937 44.4396 55.3132 44.6536 55.3132 44.918C55.3132 45.2404 55.582 45.5026 55.9127 45.5026C56.2434 45.5026 56.5123 45.2404 56.5123 44.918C56.5123 44.6536 56.7318 44.4396 57.003 44.4396C57.2741 44.4396 57.4936 44.6536 57.4936 44.918C57.4936 45.7679 56.7844 46.4593 55.9127 46.4593Z" fill="white"/>
<path d="M57.6061 42.9209C56.7344 42.9209 56.0252 42.2295 56.0252 41.3796C56.0252 41.1152 56.2447 40.9012 56.5159 40.9012C56.787 40.9012 57.0065 41.1152 57.0065 41.3796C57.0065 41.702 57.2754 41.9642 57.6061 41.9642C57.9368 41.9642 58.2057 41.702 58.2057 41.3796C58.2057 41.1152 58.4251 40.9012 58.6963 40.9012C58.9675 40.9012 59.187 41.1152 59.187 41.3796C59.187 42.2295 58.4778 42.9209 57.6061 42.9209Z" fill="white"/>
<path d="M59.7869 42.9209C58.9151 42.9209 58.206 42.2295 58.206 41.3796C58.206 41.1152 58.4255 40.9012 58.6966 40.9012C58.9678 40.9012 59.1873 41.1152 59.1873 41.3796C59.1873 41.702 59.4562 41.9642 59.7869 41.9642C60.1175 41.9642 60.3864 41.702 60.3864 41.3796C60.3864 41.1152 60.6059 40.9012 60.8771 40.9012C61.1482 40.9012 61.3677 41.1152 61.3677 41.3796C61.3677 42.2295 60.6586 42.9209 59.7869 42.9209Z" fill="white"/>
<path d="M60.901 39.3898C60.0292 39.3898 59.3201 38.6984 59.3201 37.8485C59.3201 37.5841 59.5396 37.3701 59.8107 37.3701C60.0819 37.3701 60.3014 37.5841 60.3014 37.8485C60.3014 38.1709 60.5703 38.4331 60.901 38.4331C61.2317 38.4331 61.5005 38.1709 61.5005 37.8485C61.5005 37.5841 61.72 37.3701 61.9912 37.3701C62.2623 37.3701 62.4818 37.5841 62.4818 37.8485C62.4818 38.6984 61.7727 39.3898 60.901 39.3898Z" fill="white"/>
<path d="M56.3579 29.2846C56.0252 29.2846 55.69 29.1828 55.4047 28.9723C55.1889 28.8129 55.1463 28.5128 55.3099 28.302C55.4741 28.0915 55.7816 28.05 55.9974 28.2095C56.2611 28.404 56.6379 28.3536 56.8378 28.0969C57.0373 27.8402 56.9856 27.4728 56.722 27.2782C56.5061 27.1188 56.4636 26.8187 56.6274 26.6079C56.791 26.3971 57.0991 26.3562 57.315 26.5157C58.0097 27.0292 58.1465 27.9977 57.6198 28.6751C57.3091 29.0744 56.8361 29.2846 56.3579 29.2846Z" fill="white"/>
<path d="M57.6745 27.5911C57.332 27.5911 57.0003 27.483 56.7226 27.2776C56.5067 27.1181 56.4645 26.818 56.6284 26.6072C56.792 26.3968 57.1001 26.3553 57.316 26.5154C57.4435 26.6098 57.6022 26.6503 57.7595 26.6286C57.9182 26.6076 58.0588 26.5272 58.1556 26.4028C58.2524 26.2784 58.2937 26.1244 58.2717 25.97C58.2502 25.8154 58.1677 25.6782 58.0402 25.5845C57.8243 25.425 57.7818 25.1249 57.9453 24.9141C58.1095 24.7033 58.417 24.6625 58.6329 24.8216C58.9694 25.0704 59.1863 25.432 59.2439 25.8399C59.3014 26.2478 59.1925 26.6532 58.9374 26.981C58.6823 27.3092 58.3113 27.5206 57.8933 27.5768C57.8197 27.5863 57.7468 27.5911 57.6745 27.5911Z" fill="white"/>
<path d="M47.785 47.7449C47.3991 47.7449 47.0834 47.7181 46.9604 47.7057C46.6909 47.6792 46.4946 47.4448 46.5218 47.1817C46.5489 46.9189 46.7884 46.7269 47.0592 46.7537C47.7121 46.8178 48.7863 46.8025 49.134 46.5697C49.2972 46.4466 49.7329 45.6962 50.1545 44.97C51.1083 43.3279 52.5495 40.8457 54.761 38.2841C55.4895 37.4161 57.3088 34.8121 56.9333 33.2679C56.8217 32.8089 56.5162 32.4769 55.9997 32.2521C55.7525 32.1446 55.6409 31.8618 55.7515 31.6203C55.862 31.3792 56.1515 31.2705 56.3995 31.3783C57.2035 31.7278 57.7043 32.2894 57.8884 33.0481C58.452 35.3683 55.636 38.7526 55.516 38.8955C53.3584 41.3946 51.9444 43.8302 51.0083 45.442C50.3272 46.6143 50.0129 47.1418 49.6897 47.3584C49.2177 47.6747 48.4095 47.7449 47.785 47.7449Z" fill="white"/>
<path d="M48.5638 49.8354C47.823 49.8354 47.1347 49.7311 46.9166 49.6948C46.6497 49.6501 46.4704 49.4026 46.5162 49.1427C46.562 48.8825 46.8129 48.708 47.0824 48.7517C47.9551 48.8975 49.3881 48.9654 49.8408 48.6621C50.0282 48.5352 50.5002 47.7152 50.9569 46.9224C52.0778 44.9754 53.9541 41.7167 57.0137 38.5989C57.0468 38.5616 61.6945 33.295 58.6875 29.1417C58.5311 28.9258 58.5841 28.6273 58.8052 28.4748C59.027 28.3221 59.3328 28.3744 59.4892 28.5896C60.9291 30.5787 61.0736 33.0641 59.9072 35.7768C59.0473 37.7767 57.7899 39.1861 57.7369 39.2451C54.7486 42.2904 52.9106 45.4831 51.8122 47.3906C51.09 48.6449 50.7557 49.2097 50.3966 49.4501C49.9497 49.7493 49.235 49.8354 48.5638 49.8354Z" fill="white"/>
<path d="M51.8921 54.0426H42.1076C41.9709 54.0426 41.84 53.9868 41.7471 53.8889C28.7424 40.1578 26.914 36.0897 27.7226 30.0787C28.4062 24.997 34.8107 22.415 35.0832 22.3076C40.2991 19.9603 42.4439 21.3135 43.8631 22.2093C43.9678 22.2754 44.0692 22.3395 44.1693 22.4001C45.9101 23.4579 46.9542 23.4158 46.9637 23.4152C46.9764 23.4149 46.9895 23.4142 47.0029 23.4142C47.0141 23.4142 47.0255 23.4145 47.037 23.4152C47.0625 23.4158 48.1046 23.449 49.831 22.4001C49.9308 22.3395 50.0325 22.2754 50.1372 22.2093C51.5565 21.3138 53.7012 19.96 58.9387 22.3171C59.1896 22.4154 65.5941 24.9973 66.2778 30.079C67.0864 36.0897 65.2576 40.1581 52.2532 53.8889C52.1596 53.9868 52.0291 54.0426 51.8921 54.0426ZM42.3225 53.0858H51.6775C64.2808 39.7633 66.0645 35.8537 65.3047 30.2034C64.6946 25.669 58.61 23.219 58.5488 23.1948C53.7807 21.0498 52.0559 22.1376 50.67 23.0124C50.5608 23.0816 50.4541 23.1486 50.3498 23.2117C48.4559 24.3627 47.2492 24.3825 47 24.371C46.7501 24.3828 45.5441 24.3627 43.6502 23.2117C43.5459 23.1482 43.4395 23.0813 43.33 23.0124C41.9444 22.1382 40.219 21.0501 35.4728 23.1856C35.39 23.219 29.3041 25.6776 28.6953 30.2031C27.9355 35.8537 29.7191 39.7633 42.3225 53.0858Z" fill="white"/>
<path d="M47.2054 28.1278C47.0055 28.1278 46.8819 28.1058 46.8642 28.1023C46.5983 28.0516 46.4253 27.8 46.4773 27.5407C46.529 27.2833 46.7838 27.1153 47.0481 27.1625C47.104 27.1717 48.1707 27.3242 49.2566 26.1065C49.4745 25.8622 49.7247 25.5478 49.9893 25.2148C51.4521 23.3753 53.6639 20.5962 56.771 21.4899C57.0311 21.5645 57.1796 21.8305 57.1027 22.084C57.0261 22.3375 56.7533 22.4827 56.4933 22.4074C54.0267 21.6978 52.1416 24.0693 50.7645 25.801C50.4911 26.1448 50.233 26.4698 49.9968 26.7342C48.907 27.9566 47.7615 28.1278 47.2054 28.1278Z" fill="white"/>
<path d="M40.4993 28.7459C39.327 28.7459 38.3731 27.8159 38.3731 26.6729C38.3731 25.5299 39.327 24.6 40.4993 24.6C41.6716 24.6 42.6254 25.5299 42.6254 26.6729C42.6254 27.8159 41.6716 28.7459 40.4993 28.7459ZM40.4993 25.5567C39.868 25.5567 39.3544 26.0574 39.3544 26.6729C39.3544 27.2885 39.868 27.7892 40.4993 27.7892C41.1306 27.7892 41.6441 27.2885 41.6441 26.6729C41.6441 26.0574 41.1306 25.5567 40.4993 25.5567Z" fill="white"/>
<path d="M41.2006 28.53C41.1221 28.53 41.0426 28.5115 40.9687 28.4726C40.2756 28.1087 39.8451 27.4116 39.8451 26.6525C39.8451 25.8935 40.2756 25.1963 40.9687 24.8325C41.2071 24.7068 41.5048 24.7942 41.6333 25.027C41.7619 25.2595 41.6726 25.5497 41.4338 25.675C41.0593 25.8715 40.8267 26.2462 40.8267 26.6525C40.8267 27.0588 41.0593 27.4336 41.4338 27.63C41.6723 27.7554 41.7616 28.0452 41.6333 28.2781C41.5447 28.4388 41.3753 28.53 41.2006 28.53Z" fill="white"/>
<path d="M30.3619 39.9215C30.1418 39.9215 29.9416 39.7761 29.886 39.5582C27.2224 29.1162 31.8185 27.2094 32.3055 27.0391C33.8164 26.3696 34.9082 27.3076 35.2765 27.8998C35.2775 27.8998 36.843 30.0774 38.0454 31.2979C39.1912 32.4607 40.3249 32.4801 40.3527 32.4801C40.3554 32.4795 40.3596 32.4801 40.3632 32.4801C40.3835 32.4801 40.4041 32.4814 40.424 32.484C41.9666 32.6718 43.8828 31.4073 43.9021 31.3942C43.9112 31.3882 43.9207 31.3824 43.9299 31.3767L45.0796 30.7162C45.6121 30.3941 46.2372 30.2209 46.878 30.2209C47.1491 30.2209 47.3686 30.4349 47.3686 30.6993C47.3686 30.9637 47.1491 31.1777 46.878 31.1777C46.4204 31.1777 45.9739 31.3011 45.5873 31.5352L44.4414 32.1938C44.2301 32.3322 42.1707 33.6445 40.3305 33.4366C40.0678 33.4302 38.6875 33.3304 37.3379 31.9609C36.0805 30.6849 34.5203 28.5137 34.4545 28.4219C34.3744 28.2978 33.7761 27.4278 32.6951 27.9174C32.6761 27.926 32.6568 27.9333 32.6372 27.9394C32.5986 27.9524 28.3306 29.4966 30.8381 39.3277C30.9036 39.5841 30.7433 39.8437 30.4803 39.9071C30.4411 39.9167 30.4011 39.9215 30.3619 39.9215Z" fill="white"/>
<path d="M41.3173 37.4763C41.2048 37.4763 41.0926 37.4387 41.0023 37.3647C40.9144 37.2929 38.8448 35.5746 38.4991 32.6677C38.468 32.4052 38.661 32.1679 38.9299 32.1373C39.1984 32.1089 39.4424 32.2952 39.4738 32.5573C39.623 33.8107 40.1486 34.8175 40.6438 35.5169C40.5634 34.3742 40.548 33.1505 40.547 33.0724C40.5441 32.8083 40.7609 32.5918 41.0321 32.5886C41.2941 32.5742 41.525 32.7971 41.5283 33.0615C41.5286 33.0899 41.5646 35.9159 41.7952 36.8902C41.8427 37.0904 41.7537 37.2981 41.5738 37.4055C41.4946 37.4527 41.4057 37.4763 41.3173 37.4763Z" fill="white"/>
<path d="M43.9358 32.3111C43.9194 32.3111 43.9031 32.3105 43.8864 32.3089C43.6168 32.2827 43.4199 32.0483 43.4468 31.7852C43.7107 29.2029 45.0996 25.6259 47.0206 25.6259C47.2918 25.6259 47.5113 25.8399 47.5113 26.1043C47.5113 26.3687 47.2918 26.5827 47.0206 26.5827C46.0953 26.5827 44.7149 29.0272 44.4231 31.8802C44.3983 32.1271 44.1847 32.3111 43.9358 32.3111Z" fill="white"/>
<path d="M40.2948 49.7015C39.4231 49.7015 38.714 49.01 38.714 48.1601C38.714 47.8957 38.9335 47.6817 39.2046 47.6817C39.4758 47.6817 39.6953 47.8957 39.6953 48.1601C39.6953 48.4825 39.9642 48.7447 40.2948 48.7447C40.6255 48.7447 40.8944 48.4825 40.8944 48.1601C40.8944 47.8957 41.1139 47.6817 41.3851 47.6817C41.6562 47.6817 41.8757 47.8957 41.8757 48.1601C41.8757 49.01 41.1666 49.7015 40.2948 49.7015Z" fill="white"/>
<path d="M38.0869 46.4593C37.2152 46.4593 36.5061 45.7679 36.5061 44.918C36.5061 44.6536 36.7256 44.4396 36.9967 44.4396C37.2679 44.4396 37.4874 44.6536 37.4874 44.918C37.4874 45.2404 37.7562 45.5026 38.0869 45.5026C38.4176 45.5026 38.6865 45.2404 38.6865 44.918C38.6865 44.6536 38.906 44.4396 39.1771 44.4396C39.4483 44.4396 39.6678 44.6536 39.6678 44.918C39.6678 45.7679 38.9586 46.4593 38.0869 46.4593Z" fill="white"/>
<path d="M36.3939 42.9209C35.5222 42.9209 34.813 42.2295 34.813 41.3796C34.813 41.1152 35.0325 40.9012 35.3037 40.9012C35.5748 40.9012 35.7943 41.1152 35.7943 41.3796C35.7943 41.702 36.0632 41.9642 36.3939 41.9642C36.7246 41.9642 36.9934 41.702 36.9934 41.3796C36.9934 41.1152 37.2129 40.9012 37.4841 40.9012C37.7553 40.9012 37.9747 41.1152 37.9747 41.3796C37.9747 42.2295 37.2656 42.9209 36.3939 42.9209Z" fill="white"/>
<path d="M34.2131 42.9209C33.3414 42.9209 32.6323 42.2295 32.6323 41.3796C32.6323 41.1152 32.8517 40.9012 33.1229 40.9012C33.3941 40.9012 33.6136 41.1152 33.6136 41.3796C33.6136 41.702 33.8824 41.9642 34.2131 41.9642C34.5438 41.9642 34.8127 41.702 34.8127 41.3796C34.8127 41.1152 35.0322 40.9012 35.3033 40.9012C35.5745 40.9012 35.794 41.1152 35.794 41.3796C35.794 42.2295 35.0848 42.9209 34.2131 42.9209Z" fill="white"/>
<path d="M33.0987 39.3898C32.227 39.3898 31.5179 38.6984 31.5179 37.8485C31.5179 37.5841 31.7373 37.3701 32.0085 37.3701C32.2797 37.3701 32.4991 37.5841 32.4991 37.8485C32.4991 38.1709 32.768 38.4331 33.0987 38.4331C33.4294 38.4331 33.6983 38.1709 33.6983 37.8485C33.6983 37.5841 33.9178 37.3701 34.1889 37.3701C34.4601 37.3701 34.6796 37.5841 34.6796 37.8485C34.6796 38.6984 33.9704 39.3898 33.0987 39.3898Z" fill="white"/>
<path d="M37.6421 29.2846C37.1639 29.2846 36.6909 29.0744 36.3805 28.6751C35.8539 27.998 35.9906 27.0295 36.6853 26.5157C36.9012 26.3562 37.2093 26.3971 37.3729 26.6079C37.5364 26.8184 37.4942 27.1185 37.2784 27.2782C37.015 27.4731 36.963 27.8402 37.1626 28.0969C37.3618 28.3536 37.7389 28.404 38.0029 28.2095C38.2191 28.05 38.5269 28.0915 38.6904 28.302C38.854 28.5125 38.8115 28.8126 38.5956 28.9723C38.31 29.1828 37.9747 29.2846 37.6421 29.2846Z" fill="white"/>
<path d="M36.3255 27.5911C36.2529 27.5911 36.18 27.5863 36.107 27.5764C35.689 27.5203 35.3181 27.3089 35.0629 26.9807C34.8078 26.6528 34.6989 26.2475 34.7564 25.8396C34.814 25.4317 35.0309 25.07 35.3674 24.8213C35.5833 24.6621 35.8911 24.703 36.055 24.9138C36.2186 25.1243 36.176 25.4244 35.9601 25.5841C35.8326 25.6782 35.7505 25.8154 35.7286 25.9697C35.7066 26.1244 35.7482 26.2781 35.8447 26.4025C35.9412 26.5269 36.0822 26.6072 36.2408 26.6283C36.3994 26.65 36.5571 26.6095 36.6843 26.5151C36.9002 26.3553 37.208 26.3967 37.3719 26.6069C37.5358 26.8174 37.4936 27.1175 37.2777 27.2773C36.9997 27.483 36.668 27.5911 36.3255 27.5911Z" fill="white"/>
<path d="M46.2146 47.7449C45.5902 47.7449 44.782 47.6747 44.31 47.358C43.9868 47.1415 43.6721 46.614 42.9914 45.4417C42.0556 43.8298 40.6412 41.3946 38.4883 38.9003C38.364 38.7526 35.5483 35.3683 36.1116 33.0481C36.2958 32.2897 36.7969 31.7278 37.6005 31.3783C37.8482 31.2705 38.1383 31.3792 38.2485 31.6203C38.3588 31.8618 38.2475 32.1446 38.0003 32.2521C37.4834 32.4766 37.1779 32.8093 37.0664 33.2685C36.6909 34.8159 38.5102 37.4173 39.2429 38.2893C41.4501 40.8463 42.8913 43.3282 43.8452 44.9703C44.2668 45.6962 44.7025 46.4469 44.868 46.5716C45.2131 46.8028 46.2879 46.8178 46.9401 46.754C47.2097 46.7279 47.4501 46.9195 47.4776 47.182C47.5047 47.4448 47.3084 47.6795 47.0389 47.706C46.9163 47.7181 46.6006 47.7449 46.2146 47.7449Z" fill="white"/>
<path d="M45.4361 49.8354C44.7646 49.8354 44.0502 49.7496 43.6034 49.4505C43.2443 49.2097 42.9096 48.6449 42.1877 47.3906C41.0897 45.4831 39.2514 42.2904 36.2774 39.2604C36.21 39.1861 34.9527 37.7771 34.0928 35.7768C32.9263 33.0641 33.0709 30.5787 34.5108 28.5896C34.6671 28.3741 34.9726 28.3221 35.1947 28.4748C35.4162 28.6273 35.4688 28.9258 35.3125 29.1417C32.2993 33.3036 36.9532 38.5616 37.0006 38.6142C40.0462 41.717 41.9225 44.9754 43.0434 46.9224C43.5001 47.7152 43.9721 48.5349 44.1595 48.6621C44.6135 48.966 46.0458 48.8978 46.9176 48.7517C47.1835 48.7068 47.4383 48.8818 47.4841 49.1424C47.5299 49.4026 47.3506 49.6501 47.0834 49.6948C46.8652 49.7308 46.1767 49.8354 45.4361 49.8354Z" fill="white"/>
<path d="M46.8371 28.1237C46.315 28.1237 45.1745 27.963 44.0139 26.7463C43.7284 26.4471 43.4179 26.0644 43.0892 25.6597C41.7399 23.9972 39.8925 21.722 37.5063 22.4077C37.2466 22.4827 36.9735 22.3379 36.8969 22.0843C36.8201 21.8311 36.9686 21.5651 37.2286 21.4902C40.251 20.6205 42.4213 23.2959 43.8585 25.0659C44.1748 25.4553 44.4735 25.8233 44.7322 26.0947C45.8885 27.3069 46.9159 27.1679 46.9588 27.1615C47.2234 27.1217 47.4762 27.2955 47.5214 27.5535C47.5662 27.8115 47.3941 28.0558 47.1305 28.1036C47.1148 28.1062 47.0098 28.1237 46.8371 28.1237Z" fill="white"/>
<path d="M49.0273 46.8844C49.0273 46.8844 48.4958 45.25 46.2061 45.1703C43.9165 45.0905 42.9352 46.4239 42.1583 49.9939C41.3815 53.5642 39.7051 56.8108 38.3967 57.1297C38.3967 57.1297 40.4411 57.2493 41.9539 54.9372C41.9539 54.9372 42.0154 54.7777 42.0971 54.7579C42.1789 54.7381 42.404 54.698 42.3834 55.4755C42.3627 56.253 42.4854 59.4422 45.511 59.5219C45.511 59.5219 42.4445 57.3692 44.2844 50.4726C44.2844 50.4726 45.32 46.7521 47.3372 46.9116C47.3372 46.9116 47.61 46.9116 47.61 47.0442L49.0273 46.8844Z" fill="white"/>
<path d="M45.511 60C45.5065 60 45.5022 60 45.4976 60C42.9142 59.9321 41.9539 57.7902 41.8933 55.8324C40.3167 57.6971 38.452 57.6132 38.3672 57.6072C38.1255 57.5931 37.9306 57.4091 37.908 57.1741C37.8854 56.939 38.0428 56.7231 38.2776 56.6657C39.2403 56.431 40.8738 53.5926 41.6781 49.8947C42.4115 46.5253 43.3993 44.5937 46.2235 44.6925C48.8288 44.7834 49.4689 46.6602 49.4947 46.74C49.5392 46.8762 49.5186 47.0248 49.4391 47.1447C49.3593 47.2646 49.2291 47.3437 49.0836 47.36L47.6663 47.5194C47.5276 47.5344 47.3879 47.492 47.2836 47.4011C47.278 47.3963 47.2725 47.3912 47.2672 47.3861C45.965 47.3328 44.9972 49.7388 44.7581 50.5976C43.0411 57.0325 45.7737 59.1156 45.8015 59.1357C45.9726 59.2607 46.0429 59.4805 45.9726 59.6773C45.9036 59.8699 45.7191 60 45.511 60ZM42.1527 54.2719C42.3425 54.2719 42.4779 54.3516 42.5495 54.4078C42.7912 54.5969 42.8884 54.9196 42.8733 55.4876C42.8566 56.1277 42.9312 57.9063 44.1879 58.6787C43.399 57.3329 42.6336 54.7592 43.8092 50.3521C44.8938 46.4545 47.0229 46.4147 47.3552 46.4332C47.525 46.4357 47.6751 46.4746 47.7948 46.5416L48.2217 46.4938C47.8923 46.121 47.277 45.6866 46.1885 45.6486C44.4856 45.5887 43.4719 46.2606 42.6381 50.0937C42.1812 52.1941 41.3379 54.468 40.3485 55.9628C40.7377 55.679 41.1427 55.279 41.5172 54.7155C41.5846 54.5659 41.7223 54.3567 41.9781 54.2942C42.0405 54.2783 42.0988 54.2719 42.1527 54.2719Z" fill="white"/>
<path d="M49.465 30.0981C49.3963 30.0981 49.3263 30.0841 49.2599 30.0538C46.8538 28.9711 44.814 30.0286 44.7941 30.0394C44.5563 30.1661 44.2583 30.0806 44.1284 29.8484C43.9989 29.6166 44.0866 29.326 44.3244 29.1994C44.4251 29.1458 46.823 27.9033 49.6714 29.1851C49.9174 29.2957 50.025 29.5799 49.9112 29.8197C49.8281 29.9951 49.6505 30.0981 49.465 30.0981Z" fill="white"/>
</g>
</g>
<g filter="url(#filter1_d_439_8)">
<path d="M47 63C61.3002 63 73 52.0884 73 38.5C73 24.9116 61.3002 14 47 14C32.6998 14 21 24.9116 21 38.5C21 52.0884 32.6998 63 47 63Z" stroke="white" stroke-width="2" shape-rendering="crispEdges"/>
</g>
<defs>
<filter id="filter0_d_439_8" x="21.5596" y="15" width="58.8812" height="59" filterUnits="userSpaceOnUse" color-interpolation-filters="sRGB">
<feFlood flood-opacity="0" result="BackgroundImageFix"/>
<feColorMatrix in="SourceAlpha" type="matrix" values="0 0 0 0 0 0 0 0 0 0 0 0 0 0 0 0 0 0 127 0" result="hardAlpha"/>
<feOffset dx="4" dy="4"/>
<feGaussianBlur stdDeviation="5"/>
<feComposite in2="hardAlpha" operator="out"/>
<feColorMatrix type="matrix" values="0 0 0 0 0 0 0 0 0 0 0 0 0 0 0 0 0 0 1 0"/>
<feBlend mode="normal" in2="BackgroundImageFix" result="effect1_dropShadow_439_8"/>
<feBlend mode="normal" in="SourceGraphic" in2="effect1_dropShadow_439_8" result="shape"/>
</filter>
<filter id="filter1_d_439_8" x="0" y="-11" width="94" height="91" filterUnits="userSpaceOnUse" color-interpolation-filters="sRGB">
<feFlood flood-opacity="0" result="BackgroundImageFix"/>
<feColorMatrix in="SourceAlpha" type="matrix" values="0 0 0 0 0 0 0 0 0 0 0 0 0 0 0 0 0 0 127 0" result="hardAlpha"/>
<feOffset dy="-4"/>
<feGaussianBlur stdDeviation="10"/>
<feComposite in2="hardAlpha" operator="out"/>
<feColorMatrix type="matrix" values="0 0 0 0 1 0 0 0 0 1 0 0 0 0 1 0 0 0 1 0"/>
<feBlend mode="normal" in2="BackgroundImageFix" result="effect1_dropShadow_439_8"/>
<feBlend mode="normal" in="SourceGraphic" in2="effect1_dropShadow_439_8" result="shape"/>
</filter>
<clipPath id="clip0_439_8">
<rect width="40" height="39" fill="white" transform="translate(27 21)"/>
</clipPath>
</defs>
</svg>
