<svg width="16" height="18" viewBox="0 0 16 18" fill="none" xmlns="http://www.w3.org/2000/svg">
<path d="M11.4177 11.284C11.1006 11.284 10.8817 11.284 10.8817 11.284C11.3195 12.797 11.8027 15.2365 10.3004 16.2055C9.89277 16.469 8.66982 16.8855 8.49619 16.1035C8.25462 15.0325 8.02061 13.9615 7.45443 13.018C6.98639 12.2445 6.27679 11.386 5.39355 11.284C5.39355 11.2415 5.39355 11.1905 5.39355 11.1905V3.32798C5.39355 3.32798 5.39355 3.11548 5.39355 2.90298C5.48414 2.86898 5.57472 2.83497 5.57472 2.83497L7.16002 2.24847C7.6809 2.05297 8.22443 1.95099 8.77551 1.95099H12.6482C13.4182 1.95099 14.0447 2.648 14.0447 3.5065C14.0447 3.7105 14.007 3.89749 13.939 4.07599C14.5354 4.26299 14.9657 4.86651 14.9657 5.58051C14.9657 5.98001 14.8374 6.34549 14.6109 6.62599C14.8298 6.89799 14.9657 7.26351 14.9657 7.65451C14.9657 8.05401 14.8374 8.41949 14.6109 8.69999C14.8298 8.97199 14.9657 9.33751 14.9657 9.72851C14.9657 10.587 14.3391 11.284 13.5767 11.284C13.5767 11.284 12.2028 11.284 11.4177 11.284Z" stroke="white" stroke-width="1.5" stroke-linecap="round" stroke-linejoin="round"/>
<path d="M1 12.627H3.63461C4.60089 12.627 5.38598 11.743 5.38598 10.655V2.80099C5.38598 1.71299 4.60089 0.828979 3.63461 0.828979H1V12.627Z" stroke="white" stroke-width="1.5" stroke-linecap="round" stroke-linejoin="round"/>
<path d="M3.19673 4.29701C3.52193 4.29701 3.78556 4.00015 3.78556 3.63398C3.78556 3.26782 3.52193 2.97101 3.19673 2.97101C2.87153 2.97101 2.60791 3.26782 2.60791 3.63398C2.60791 4.00015 2.87153 4.29701 3.19673 4.29701Z" fill="black"/>
</svg>
