<svg xmlns="http://www.w3.org/2000/svg" height="40" viewBox="0 -960 960 960" width="40"><path d="m479.435-99.188-57.406-51.608q-106.063-96.777-175.177-167.056-69.113-70.278-109.918-126.003Q96.13-499.58 79.869-545.754q-16.261-46.174-16.261-94.283 0-98.424 65.865-164.39 65.866-65.965 163.295-65.965 54.864 0 102.439 23.449 47.575 23.45 84.228 68.334 40.652-46.885 87.106-69.334 46.454-22.449 99.561-22.449 98.23 0 164.26 65.976 66.03 65.976 66.03 164.416 0 47.873-16.167 93.864-16.166 45.991-57.065 101.622-40.899 55.63-110.245 126.234-69.346 70.603-175.697 167.484l-57.783 51.608Zm-.189-117.116q98.926-90.664 162.521-154.462 63.595-63.799 100.603-111.451 37.007-47.653 51.442-84.624 14.435-36.971 14.435-73.049 0-61.849-39.964-102.103-39.963-40.254-101.758-40.254-48.406 0-90.03 30.022-41.625 30.022-64.626 81.312h-64.97q-22.15-51-64.227-81.167-42.077-30.167-89.941-30.167-61.103 0-100.758 40.012-39.654 40.011-39.654 102.445 0 36.878 14.683 74.458 14.684 37.58 51.725 85.499 37.041 47.92 100.295 111.29 63.253 63.369 160.224 152.239Zm1.319-283.16Z"/></svg>