<svg width="16" height="18" viewBox="0 0 16 18" fill="none" xmlns="http://www.w3.org/2000/svg">
<path d="M11.4177 6.41604C11.1006 6.41604 10.8817 6.41604 10.8817 6.41604C11.3195 4.90304 11.8027 2.46351 10.3004 1.49451C9.89277 1.23101 8.66983 0.814506 8.4962 1.59651C8.25463 2.66751 8.02062 3.73851 7.45444 4.68201C6.9864 5.45551 6.27679 6.31404 5.39355 6.41604C5.39355 6.45854 5.39355 6.50953 5.39355 6.50953V14.372C5.39355 14.372 5.39355 14.5845 5.39355 14.797C5.48414 14.831 5.57473 14.865 5.57473 14.865L7.16003 15.4515C7.68091 15.647 8.22444 15.749 8.77552 15.749H12.6482C13.4182 15.749 14.0447 15.052 14.0447 14.1935C14.0447 13.9895 14.007 13.8025 13.939 13.624C14.5354 13.437 14.9657 12.8335 14.9657 12.1195C14.9657 11.72 14.8374 11.3545 14.6109 11.074C14.8298 10.802 14.9657 10.4365 14.9657 10.0455C14.9657 9.64601 14.8374 9.28052 14.6109 9.00002C14.8298 8.72802 14.9657 8.36251 14.9657 7.97151C14.9657 7.11301 14.3391 6.41604 13.5767 6.41604C13.5767 6.41604 12.2028 6.41604 11.4177 6.41604Z" fill="black" stroke="white" stroke-width="1.5" stroke-linecap="round" stroke-linejoin="round"/>
<path d="M1 5.073H3.63461C4.60088 5.073 5.38598 5.957 5.38598 7.045V14.899C5.38598 15.987 4.60088 16.871 3.63461 16.871H1V5.073Z" fill="black" stroke="white" stroke-width="1.5" stroke-linecap="round" stroke-linejoin="round"/>
<path d="M3.19674 14.729C3.52194 14.729 3.78556 14.4322 3.78556 14.066C3.78556 13.6999 3.52194 13.403 3.19674 13.403C2.87154 13.403 2.60791 13.6999 2.60791 14.066C2.60791 14.4322 2.87154 14.729 3.19674 14.729Z" fill="black"/>
</svg>
