<svg width="54" height="49" viewBox="0 0 54 49" fill="none" xmlns="http://www.w3.org/2000/svg">
<g filter="url(#filter0_d_560_143)">
<path d="M28.24 37.823C27.56 38.059 26.44 38.059 25.76 37.823C19.96 35.8764 7 27.7556 7 13.9916C7 7.91572 11.98 3 18.12 3C21.76 3 24.98 4.73034 27 7.40449C29.02 4.73034 32.26 3 35.88 3C42.02 3 47 7.91572 47 13.9916C47 27.7556 34.04 35.8764 28.24 37.823Z" fill="#B0B0B0"/>
<path d="M28.24 37.823C27.56 38.059 26.44 38.059 25.76 37.823C19.96 35.8764 7 27.7556 7 13.9916C7 7.91572 11.98 3 18.12 3C21.76 3 24.98 4.73034 27 7.40449C29.02 4.73034 32.26 3 35.88 3C42.02 3 47 7.91572 47 13.9916C47 27.7556 34.04 35.8764 28.24 37.823Z" stroke="#B0B0B0" stroke-width="5.35182" stroke-linecap="round" stroke-linejoin="round"/>
</g>
<defs>
<filter id="filter0_d_560_143" x="0.324219" y="0.324097" width="53.3516" height="48.3518" filterUnits="userSpaceOnUse" color-interpolation-filters="sRGB">
<feFlood flood-opacity="0" result="BackgroundImageFix"/>
<feColorMatrix in="SourceAlpha" type="matrix" values="0 0 0 0 0 0 0 0 0 0 0 0 0 0 0 0 0 0 127 0" result="hardAlpha"/>
<feOffset dy="4"/>
<feGaussianBlur stdDeviation="2"/>
<feComposite in2="hardAlpha" operator="out"/>
<feColorMatrix type="matrix" values="0 0 0 0 0 0 0 0 0 0 0 0 0 0 0 0 0 0 0.25 0"/>
<feBlend mode="normal" in2="BackgroundImageFix" result="effect1_dropShadow_560_143"/>
<feBlend mode="normal" in="SourceGraphic" in2="effect1_dropShadow_560_143" result="shape"/>
</filter>
</defs>
</svg>
